
      <svg data-logo="logo" xmlns="http://www.w3.org/2000/svg" viewBox="0 0 204.489990234375 41">
        <g id="logogram" transform="
    translate(0, 0.5)
    rotate(0 20 20)
    
  "><path d="M33.724 36.5809C37.7426 32.5622 40.0003 27.1118 40.0003 21.4286C40.0003 15.7454 37.7426 10.2949 33.724 6.27629C29.7054 2.25765 24.2549 1.02188e-06 18.5717 0C12.8885 -1.02188e-06 7.43807 2.25764 3.41943 6.27628L10.4905 13.3473C11.6063 14.4631 13.4081 14.4074 14.8276 13.7181C15.9836 13.1568 17.2622 12.8571 18.5717 12.8571C20.845 12.8571 23.0252 13.7602 24.6326 15.3677C26.2401 16.9751 27.1431 19.1553 27.1431 21.4286C27.1431 22.7381 26.8435 24.0167 26.2822 25.1727C25.5929 26.5922 25.5372 28.394 26.6529 29.5098L33.724 36.5809Z" fill="#297AFF"/><path d="M30 40H19.5098C17.9943 40 16.5408 39.398 15.4692 38.3263L1.67368 24.5308C0.60204 23.4592 0 22.0057 0 20.4902V10L30 40Z" fill="#34C2FF"/><path d="M10.7143 39.9999H4.28571C1.91878 39.9999 0 38.0812 0 35.7142V29.2856L10.7143 39.9999Z" fill="#34C2FF"/></g>
        <g id="logotype" transform="translate(46, 7.31201171875)"><path fill="#111111" d="M15.69 26.34L15.69 26.34Q11.73 26.34 9.44 24.27Q7.16 22.19 7.16 18.34L7.16 18.34L7.16 16.86L12.37 16.86L12.37 18.43Q12.37 20.26 13.27 21.20Q14.17 22.14 15.69 22.14L15.69 22.14Q17.21 22.14 18.10 21.20Q18.99 20.26 18.99 18.41L18.99 18.41L18.99 0.54L24.15 0.54L24.15 18.33Q24.15 22.19 21.89 24.27Q19.64 26.34 15.69 26.34ZM34.91 26.38L34.91 26.38Q32.04 26.38 29.94 25.14Q27.84 23.90 26.70 21.68Q25.57 19.47 25.57 16.53L25.57 16.53Q25.57 13.56 26.70 11.35Q27.84 9.13 29.94 7.89Q32.04 6.65 34.91 6.65L34.91 6.65Q37.80 6.65 39.90 7.89Q41.99 9.13 43.13 11.35Q44.26 13.56 44.26 16.53L44.26 16.53Q44.26 19.47 43.13 21.68Q41.99 23.90 39.90 25.14Q37.80 26.38 34.91 26.38ZM34.91 22.34L34.91 22.34Q36.28 22.34 37.20 21.58Q38.13 20.82 38.59 19.50Q39.05 18.17 39.05 16.52L39.05 16.52Q39.05 14.82 38.59 13.51Q38.13 12.19 37.20 11.44Q36.28 10.69 34.91 10.69L34.91 10.69Q33.55 10.69 32.63 11.44Q31.72 12.19 31.26 13.51Q30.80 14.82 30.80 16.52L30.80 16.52Q30.80 18.17 31.26 19.50Q31.72 20.82 32.63 21.58Q33.55 22.34 34.91 22.34ZM56.26 26.32L56.26 26.32Q54.70 26.32 53.63 25.79Q52.55 25.27 51.87 24.49Q51.20 23.71 50.84 22.94L50.84 22.94L50.60 22.94L50.60 26L45.56 26L45.56 0.54L50.69 0.54L50.69 10.11L50.84 10.11Q51.20 9.35 51.86 8.55Q52.51 7.75 53.59 7.20Q54.67 6.65 56.29 6.65L56.29 6.65Q58.41 6.65 60.17 7.75Q61.93 8.84 62.98 11.03Q64.03 13.22 64.03 16.48L64.03 16.48Q64.03 19.66 63.01 21.86Q61.98 24.05 60.22 25.19Q58.46 26.32 56.26 26.32ZM54.68 22.21L54.68 22.21Q56.02 22.21 56.93 21.47Q57.85 20.74 58.32 19.44Q58.79 18.14 58.79 16.46L58.79 16.46Q58.79 14.79 58.32 13.51Q57.85 12.23 56.94 11.49Q56.03 10.76 54.68 10.76L54.68 10.76Q53.37 10.76 52.45 11.47Q51.52 12.17 51.04 13.45Q50.57 14.72 50.57 16.46L50.57 16.46Q50.57 18.19 51.05 19.48Q51.54 20.77 52.46 21.49Q53.39 22.21 54.68 22.21ZM76.69 26L71.48 26L71.48 0.54L81.41 0.54Q84.31 0.54 86.35 1.64Q88.38 2.74 89.45 4.68Q90.52 6.62 90.52 9.13L90.52 9.13Q90.52 11.66 89.43 13.58Q88.35 15.51 86.29 16.59Q84.23 17.68 81.29 17.68L81.29 17.68L74.90 17.68L74.90 13.47L80.45 13.47Q82.06 13.47 83.09 12.92Q84.13 12.36 84.63 11.39Q85.13 10.41 85.13 9.13L85.13 9.13Q85.13 7.85 84.63 6.88Q84.13 5.90 83.08 5.37Q82.04 4.84 80.44 4.84L80.44 4.84L76.69 4.84L76.69 26ZM100.31 26.38L100.31 26.38Q97.44 26.38 95.34 25.14Q93.23 23.90 92.10 21.68Q90.96 19.47 90.96 16.53L90.96 16.53Q90.96 13.56 92.10 11.35Q93.23 9.13 95.34 7.89Q97.44 6.65 100.31 6.65L100.31 6.65Q103.20 6.65 105.29 7.89Q107.38 9.13 108.52 11.35Q109.66 13.56 109.66 16.53L109.66 16.53Q109.66 19.47 108.52 21.68Q107.38 23.90 105.29 25.14Q103.20 26.38 100.31 26.38ZM100.31 22.34L100.31 22.34Q101.68 22.34 102.60 21.58Q103.52 20.82 103.98 19.50Q104.44 18.17 104.44 16.52L104.44 16.52Q104.44 14.82 103.98 13.51Q103.52 12.19 102.60 11.44Q101.68 10.69 100.31 10.69L100.31 10.69Q98.94 10.69 98.03 11.44Q97.11 12.19 96.65 13.51Q96.19 14.82 96.19 16.52L96.19 16.52Q96.19 18.17 96.65 19.50Q97.11 20.82 98.03 21.58Q98.94 22.34 100.31 22.34ZM116.08 26L110.95 26L110.95 6.89L115.91 6.89L115.91 10.23L116.11 10.23Q116.64 8.45 117.88 7.54Q119.12 6.64 120.73 6.64L120.73 6.64Q121.12 6.64 121.57 6.68Q122.03 6.72 122.39 6.81L122.39 6.81L122.39 11.39Q122.04 11.27 121.40 11.20Q120.75 11.13 120.16 11.13L120.16 11.13Q119.00 11.13 118.06 11.64Q117.12 12.14 116.60 13.04Q116.08 13.93 116.08 15.13L116.08 15.13L116.08 26ZM121.09 6.89L132.42 6.89L132.42 10.81L121.09 10.81L121.09 6.89ZM123.72 20.86L123.72 2.35L128.84 2.35L128.84 20.41Q128.84 21.32 129.25 21.75Q129.65 22.19 130.59 22.19L130.59 22.19Q130.88 22.19 131.41 22.11Q131.94 22.04 132.21 21.97L132.21 21.97L132.95 25.81Q132.09 26.07 131.25 26.17Q130.40 26.27 129.63 26.27L129.63 26.27Q126.76 26.27 125.24 24.87Q123.72 23.47 123.72 20.86L123.72 20.86ZM138.81 26.38L138.81 26.38Q136.99 26.38 135.55 25.74Q134.11 25.09 133.28 23.82Q132.45 22.55 132.45 20.65L132.45 20.65Q132.45 19.06 133.04 17.98Q133.63 16.91 134.64 16.26Q135.66 15.61 136.95 15.27Q138.24 14.93 139.66 14.79L139.66 14.79Q141.32 14.62 142.33 14.47Q143.35 14.33 143.82 14.01Q144.29 13.70 144.29 13.08L144.29 13.08L144.29 12.99Q144.29 12.17 143.95 11.61Q143.61 11.05 142.94 10.75Q142.28 10.45 141.30 10.45L141.30 10.45Q140.31 10.45 139.57 10.75Q138.84 11.05 138.38 11.54Q137.92 12.04 137.70 12.65L137.70 12.65L133.00 11.87Q133.49 10.21 134.64 9.05Q135.78 7.88 137.48 7.27Q139.18 6.65 141.30 6.65L141.30 6.65Q142.86 6.65 144.31 7.02Q145.76 7.39 146.91 8.16Q148.07 8.93 148.74 10.16Q149.42 11.39 149.42 13.13L149.42 13.13L149.42 26L144.57 26L144.57 23.35L144.39 23.35Q143.93 24.24 143.16 24.91Q142.39 25.59 141.31 25.98Q140.22 26.38 138.81 26.38ZM140.26 22.77L140.26 22.77Q141.47 22.77 142.39 22.29Q143.30 21.81 143.81 20.99Q144.33 20.17 144.33 19.16L144.33 19.16L144.33 17.10Q144.10 17.27 143.64 17.40Q143.18 17.54 142.62 17.64Q142.05 17.75 141.51 17.83Q140.96 17.92 140.53 17.97L140.53 17.97Q139.59 18.10 138.87 18.41Q138.16 18.72 137.76 19.22Q137.37 19.73 137.37 20.51L137.37 20.51Q137.37 21.25 137.75 21.75Q138.12 22.26 138.76 22.51Q139.40 22.77 140.26 22.77ZM151.52 0.54L156.65 0.54L156.65 26L151.52 26L151.52 0.54Z"/></g>
        
      </svg>
    